# xmcd
#
# Track frame offsets: 
#        150
#        12901
#        21900
#        38700
#        50849
#        66599
#        82348
#        99672
#        109647
#        118797
#        128398
#
# Disc length: 1771 seconds
#
# Revision: 0
# Processed by: cddbd v1.5.2PL0 Copyright (c) Steve Scherf et al.
# Submitted via: ExactAudioCopyFreeDBPlugin 1.0
#
DISCID=9606e90b
DTITLE=The Bluegrass Revival - Gone Home
DYEAR=2010
DGENRE=Bluegrass
TTITLE0=Living The Right Life Now
TTITLE1=Using My Bible For a Road Map
TTITLE2=Please Search The Book Again
TTITLE3=Old Country Church
TTITLE4=Lay These Burdens Down
TTITLE5=The Old Crossroads
TTITLE6=Promise From On High
TTITLE7=Holy Unto The Lord
TTITLE8=Gone Home
TTITLE9=Good-Bye
TTITLE10=I'll Fly Away
EXTD=
EXTT0=
EXTT1=
EXTT2=
EXTT3=
EXTT4=
EXTT5=
EXTT6=
EXTT7=
EXTT8=
EXTT9=
EXTT10=
PLAYORDER=
